<?xml version="1.0" standalone="no"?>
<!DOCTYPE svg PUBLIC "-//W3C//DTD SVG 20010904//EN"
 "http://www.w3.org/TR/2001/REC-SVG-20010904/DTD/svg10.dtd">
<svg version="1.0" xmlns="http://www.w3.org/2000/svg"
 width="468.000000pt" height="468.000000pt" viewBox="0 0 468.000000 468.000000"
 preserveAspectRatio="xMidYMid meet">
<metadata>
Created by potrace 1.14, written by Peter Selinger 2001-2017
</metadata>
<g transform="translate(0.000000,468.000000) scale(0.100000,-0.100000)"
fill="#000000" stroke="none">
<path d="M2195 4668 c-39 -13 -48 -15 -58 -17 -31 -4 -187 -99 -254 -154 -49
-39 -208 -202 -238 -242 -17 -22 -32 -42 -36 -45 -13 -12 -89 -130 -89 -139 0
-6 -4 -11 -8 -11 -4 0 -25 -37 -46 -82 -53 -114 -57 -122 -60 -138 -2 -8 -6
-22 -9 -30 -4 -8 -8 -26 -11 -40 -2 -14 -7 -32 -10 -40 -7 -20 -15 -71 -23
-150 -24 -241 32 -430 166 -559 42 -40 160 -109 201 -117 3 0 12 -4 20 -7 29
-13 135 -29 190 -30 34 -1 87 6 144 18 93 20 230 125 311 239 41 58 109 186
99 186 -2 0 2 10 10 23 13 21 60 159 70 209 9 41 14 62 24 103 6 22 13 56 16
75 3 19 8 46 11 60 18 85 26 412 12 495 -19 106 -35 159 -69 225 -33 64 -118
157 -148 161 -3 0 -14 3 -25 6 -37 10 -160 11 -190 1z"/>
<path d="M3427 4363 c-3 -2 -14 -6 -26 -8 -39 -7 -127 -54 -167 -87 -82 -71
-183 -195 -225 -278 -13 -25 -27 -48 -32 -51 -4 -3 -9 -13 -11 -21 -1 -9 -8
-23 -15 -31 -7 -9 -14 -22 -15 -29 -1 -7 -15 -40 -30 -73 -16 -33 -29 -64 -31
-70 -1 -5 -5 -17 -8 -25 -21 -51 -55 -160 -50 -160 3 0 1 -6 -5 -12 -8 -11
-15 -35 -27 -98 -1 -3 -4 -14 -8 -25 -27 -82 -42 -353 -24 -440 3 -16 9 -43
12 -60 20 -103 125 -249 224 -310 50 -31 155 -71 215 -82 77 -14 227 -7 286
14 138 50 266 171 349 334 28 54 48 99 45 99 -4 0 -2 6 3 13 13 16 52 134 59
178 3 19 8 50 11 69 9 51 9 327 0 385 -4 28 -10 64 -13 80 -6 44 -25 128 -31
145 -3 8 -8 24 -10 35 -9 51 -103 268 -122 285 -3 3 -12 16 -19 30 -29 56
-161 178 -176 163 -3 -4 -6 0 -6 7 0 7 -3 10 -6 7 -4 -3 -16 -1 -27 5 -20 10
-112 19 -120 11z"/>
<path d="M692 3540 c-28 -10 -69 -29 -91 -43 -70 -47 -231 -217 -231 -245 0
-6 -4 -12 -8 -14 -14 -6 -150 -249 -153 -275 -1 -5 -6 -19 -11 -33 -6 -14 -11
-29 -12 -35 -1 -5 -5 -15 -8 -21 -4 -6 -9 -23 -12 -38 -3 -15 -9 -42 -15 -59
-5 -18 -13 -48 -16 -67 -11 -55 -13 -300 -4 -339 5 -20 11 -54 14 -75 3 -21 9
-44 13 -50 3 -6 8 -19 9 -29 2 -10 9 -28 15 -40 7 -12 13 -24 13 -27 4 -22 18
-50 26 -50 5 0 9 -7 9 -15 0 -8 27 -43 60 -78 58 -62 148 -118 210 -131 113
-22 143 -26 191 -20 90 9 104 11 104 13 0 2 8 4 17 6 35 7 108 38 108 46 0 5
7 9 16 9 21 0 143 126 150 156 3 13 9 24 13 24 3 0 11 12 18 28 31 74 41 102
36 102 -3 0 -1 6 5 13 5 6 13 28 17 47 3 19 8 46 11 60 28 155 23 510 -10 640
-3 14 -9 42 -11 62 -5 32 -12 60 -40 146 -3 7 -5 14 -5 17 -3 19 -57 127 -82
164 -38 55 -128 142 -140 135 -4 -3 -8 -1 -8 4 0 27 -129 34 -198 12z"/>
<path d="M4167 2623 c-3 -2 -11 -6 -19 -7 -48 -8 -138 -46 -138 -58 0 -4 -6
-8 -13 -8 -8 0 -23 -8 -35 -17 -11 -10 -31 -25 -43 -33 -41 -27 -195 -183
-246 -250 -61 -80 -113 -158 -113 -170 0 -4 -4 -10 -8 -12 -10 -4 -84 -128
-76 -128 3 0 -2 -7 -10 -16 -9 -8 -14 -20 -11 -25 4 -5 2 -9 -4 -9 -6 0 -14
-12 -17 -27 -4 -16 -14 -38 -22 -50 -8 -13 -11 -23 -7 -23 4 0 2 -6 -4 -13 -6
-8 -12 -22 -14 -33 -2 -10 -7 -26 -10 -34 -4 -8 -9 -28 -12 -45 -4 -16 -9 -41
-11 -55 -10 -49 -12 -165 -4 -205 16 -78 20 -90 46 -142 25 -52 92 -128 148
-168 42 -30 106 -66 106 -59 0 4 6 1 14 -5 40 -33 189 -54 271 -38 69 14 83
18 145 49 72 36 243 196 275 258 10 19 24 40 31 48 8 7 14 20 14 28 0 8 4 14
8 14 14 0 86 173 96 230 3 14 5 26 7 28 2 2 2 4 13 57 37 174 39 431 6 565 -6
25 -13 53 -15 64 -9 38 -50 136 -57 136 -5 0 -8 6 -8 14 0 22 -82 101 -125
121 -36 17 -147 29 -158 18z"/>
<path d="M2118 2285 c-2 -2 -19 -5 -38 -8 -67 -11 -136 -34 -217 -75 -82 -41
-145 -80 -151 -94 -2 -5 -9 -8 -15 -8 -7 0 -26 -13 -44 -28 -17 -15 -51 -43
-74 -62 -24 -19 -70 -60 -104 -91 -60 -56 -114 -104 -138 -125 -6 -5 -27 -19
-44 -29 -18 -11 -33 -23 -33 -27 0 -4 -6 -8 -14 -8 -8 0 -16 -3 -18 -8 -4 -11
-194 -105 -253 -126 -27 -10 -57 -20 -65 -23 -8 -4 -18 -7 -22 -8 -5 -2 -10
-4 -13 -5 -3 -1 -8 -3 -12 -4 -81 -18 -202 -76 -243 -118 -96 -96 -122 -307
-65 -528 9 -36 21 -69 26 -74 5 -6 9 -18 9 -27 0 -10 6 -24 12 -31 7 -7 22
-30 33 -51 20 -40 107 -133 165 -177 72 -54 191 -103 285 -117 54 -8 149 -7
270 2 125 9 288 10 340 1 74 -12 92 -16 153 -30 88 -21 285 -114 336 -158 11
-10 25 -18 32 -18 7 0 14 -4 16 -8 8 -20 288 -193 288 -178 0 3 16 -2 36 -10
20 -8 53 -18 73 -21 47 -8 197 -8 236 -1 57 11 90 21 103 31 6 5 12 7 12 3 0
-11 125 57 170 93 100 79 169 169 235 306 35 72 39 88 39 155 -1 41 -3 82 -5
90 -10 37 -32 80 -40 80 -5 0 -9 6 -9 13 0 6 -17 30 -36 52 -203 228 -293 363
-362 545 -11 30 -39 111 -61 180 -22 69 -47 142 -55 162 -9 21 -16 40 -16 43
1 12 -105 204 -136 246 -28 38 -118 127 -177 176 -29 23 -164 83 -203 89 -40
6 -201 13 -206 9z"/>
</g>
</svg>
